<?xml version="1.0" encoding="UTF-8" standalone="no"?>
<!-- Generator: Adobe Illustrator 25.4.1, SVG Export Plug-In . SVG Version: 6.00 Build 0)  -->

<svg
   xmlns:dc="http://purl.org/dc/elements/1.1/"
   xmlns:cc="http://creativecommons.org/ns#"
   xmlns:rdf="http://www.w3.org/1999/02/22-rdf-syntax-ns#"
   xmlns:svg="http://www.w3.org/2000/svg"
   xmlns="http://www.w3.org/2000/svg"
   xmlns:sodipodi="http://sodipodi.sourceforge.net/DTD/sodipodi-0.dtd"
   xmlns:inkscape="http://www.inkscape.org/namespaces/inkscape"
   version="1.1"
   id="Layer_1"
   x="0px"
   y="0px"
   viewBox="0 0 200 199.99999"
   xml:space="preserve"
   sodipodi:docname="igreja.svg"
   width="200"
   height="200"
   inkscape:version="0.92.4 (5da689c313, 2019-01-14)"><metadata
   id="metadata11"><rdf:RDF><cc:Work
       rdf:about=""><dc:format>image/svg+xml</dc:format><dc:type
         rdf:resource="http://purl.org/dc/dcmitype/StillImage" /><dc:title></dc:title></cc:Work></rdf:RDF></metadata><defs
   id="defs9"><filter
     style="color-interpolation-filters:sRGB;"
     inkscape:label="Drop Shadow"
     id="filter1366"><feFlood
       flood-opacity="0.498039"
       flood-color="rgb(0,0,0)"
       result="flood"
       id="feFlood1356" /><feComposite
       in="flood"
       in2="SourceGraphic"
       operator="in"
       result="composite1"
       id="feComposite1358" /><feGaussianBlur
       in="composite1"
       stdDeviation="4.6"
       result="blur"
       id="feGaussianBlur1360" /><feOffset
       dx="3.6"
       dy="1.3"
       result="offset"
       id="feOffset1362" /><feComposite
       in="SourceGraphic"
       in2="offset"
       operator="over"
       result="composite2"
       id="feComposite1364" /></filter><filter
     style="color-interpolation-filters:sRGB;"
     inkscape:label="Drop Shadow"
     id="filter862"><feFlood
       flood-opacity="0.498039"
       flood-color="rgb(0,0,0)"
       result="flood"
       id="feFlood852" /><feComposite
       in="flood"
       in2="SourceGraphic"
       operator="in"
       result="composite1"
       id="feComposite854" /><feGaussianBlur
       in="composite1"
       stdDeviation="8.7"
       result="blur"
       id="feGaussianBlur856" /><feOffset
       dx="4.4"
       dy="2.9"
       result="offset"
       id="feOffset858" /><feComposite
       in="SourceGraphic"
       in2="offset"
       operator="over"
       result="composite2"
       id="feComposite860" /></filter></defs><sodipodi:namedview
   pagecolor="#ffffff"
   bordercolor="#666666"
   borderopacity="1"
   objecttolerance="10"
   gridtolerance="10"
   guidetolerance="10"
   inkscape:pageopacity="0"
   inkscape:pageshadow="2"
   inkscape:window-width="1920"
   inkscape:window-height="1017"
   id="namedview7"
   showgrid="false"
   inkscape:zoom="2.56"
   inkscape:cx="123.12196"
   inkscape:cy="64.3877"
   inkscape:window-x="-8"
   inkscape:window-y="-8"
   inkscape:window-maximized="1"
   inkscape:current-layer="Layer_1" />


<circle
   style="opacity:1;fill:#003063;fill-opacity:1;fill-rule:evenodd;stroke-width:3.45317054;filter:url(#filter862)"
   id="path938-2"
   cx="100"
   cy="100"
   r="82.5"
   inkscape:export-xdpi="11"
   inkscape:export-ydpi="11" /><path
   style="fill:#000000;stroke-width:0.20480187"
   d=""
   id="path864"
   inkscape:connector-curvature="0" /><path
   id="rect907-4-1"
   d="m 74.11882,46.500003 a 2.0928674,2.0928674 0 0 0 -2.09333,2.09333 2.0928674,2.0928674 0 0 0 1.63849,2.04063 l -5.8707,7.91522 -6.32556,8.530138 h 0.0345 v 0.10737 h -2.41283 v 1.81678 h 2.41283 v 24.97942 h -2.41283 v 1.816776 h 2.41283 V 153.49999 H 86.71523 V 95.799667 h 2.41347 v -1.816776 h -2.41347 v -24.97942 h 2.41347 v -1.81678 h -2.41347 v -0.10737 h 0.054 l -6.32553,-8.530138 -5.87007,-7.91588 a 2.0928674,2.0928674 0 0 0 1.63786,-2.03997 2.0928674,2.0928674 0 0 0 -2.09269,-2.09333 z m -0.01,25.648348 a 5.3713322,3.8235939 0 0 1 5.37162,3.82356 v 12.0199 h -10.7432 v -12.0199 a 5.3713322,3.8235939 0 0 1 5.37158,-3.82356 z m 38.69312,10.4172 v 2.49286 h -3.56587 v 1.86949 h 3.56587 v 6.71727 l -12.53785,9.651319 -13.54841,10.43021 v 39.77263 h 20.42053 v -19.41194 a 6.6765,6.1752479 0 0 1 6.67692,-6.17458 6.6765,6.1752479 0 0 1 6.67628,6.17458 v 19.41194 h 20.4212 V 113.7267 l -13.54904,-10.43021 -12.53789,-9.651319 v -6.71727 h 3.56591 v -1.86949 h -3.56591 v -2.49286 z m 7.68747,70.933779 h -13.3532 V 153.5 h 13.3532 z m -6.67628,-48.00735 a 5.3703897,5.3703897 0 0 1 5.37032,5.3703 5.3703897,5.3703897 0 0 1 -5.37032,5.3703 5.3703897,5.3703897 0 0 1 -5.37029,-5.3703 5.3703897,5.3703897 0 0 1 5.37029,-5.3703 z"
   style="fill:#ffffff;fill-opacity:1;stroke-width:0.33316299"
   inkscape:connector-curvature="0" /></svg>