<?xml version="1.0" encoding="UTF-8" standalone="no"?>
<!-- Generator: Adobe Illustrator 25.4.1, SVG Export Plug-In . SVG Version: 6.00 Build 0)  -->

<svg
   xmlns:dc="http://purl.org/dc/elements/1.1/"
   xmlns:cc="http://creativecommons.org/ns#"
   xmlns:rdf="http://www.w3.org/1999/02/22-rdf-syntax-ns#"
   xmlns:svg="http://www.w3.org/2000/svg"
   xmlns="http://www.w3.org/2000/svg"
   xmlns:sodipodi="http://sodipodi.sourceforge.net/DTD/sodipodi-0.dtd"
   xmlns:inkscape="http://www.inkscape.org/namespaces/inkscape"
   version="1.1"
   id="Layer_1"
   x="0px"
   y="0px"
   viewBox="0 0 200 199.99999"
   xml:space="preserve"
   sodipodi:docname="monumentos.svg"
   width="200"
   height="200"
   inkscape:version="0.92.4 (5da689c313, 2019-01-14)"><metadata
   id="metadata11"><rdf:RDF><cc:Work
       rdf:about=""><dc:format>image/svg+xml</dc:format><dc:type
         rdf:resource="http://purl.org/dc/dcmitype/StillImage" /><dc:title></dc:title></cc:Work></rdf:RDF></metadata><defs
   id="defs9"><filter
     style="color-interpolation-filters:sRGB;"
     inkscape:label="Drop Shadow"
     id="filter1366"><feFlood
       flood-opacity="0.498039"
       flood-color="rgb(0,0,0)"
       result="flood"
       id="feFlood1356" /><feComposite
       in="flood"
       in2="SourceGraphic"
       operator="in"
       result="composite1"
       id="feComposite1358" /><feGaussianBlur
       in="composite1"
       stdDeviation="4.6"
       result="blur"
       id="feGaussianBlur1360" /><feOffset
       dx="3.6"
       dy="1.3"
       result="offset"
       id="feOffset1362" /><feComposite
       in="SourceGraphic"
       in2="offset"
       operator="over"
       result="composite2"
       id="feComposite1364" /></filter><filter
     style="color-interpolation-filters:sRGB;"
     inkscape:label="Drop Shadow"
     id="filter862"><feFlood
       flood-opacity="0.498039"
       flood-color="rgb(0,0,0)"
       result="flood"
       id="feFlood852" /><feComposite
       in="flood"
       in2="SourceGraphic"
       operator="in"
       result="composite1"
       id="feComposite854" /><feGaussianBlur
       in="composite1"
       stdDeviation="8.7"
       result="blur"
       id="feGaussianBlur856" /><feOffset
       dx="4.4"
       dy="2.9"
       result="offset"
       id="feOffset858" /><feComposite
       in="SourceGraphic"
       in2="offset"
       operator="over"
       result="composite2"
       id="feComposite860" /></filter></defs><sodipodi:namedview
   pagecolor="#ffffff"
   bordercolor="#666666"
   borderopacity="1"
   objecttolerance="10"
   gridtolerance="10"
   guidetolerance="10"
   inkscape:pageopacity="0"
   inkscape:pageshadow="2"
   inkscape:window-width="1920"
   inkscape:window-height="1017"
   id="namedview7"
   showgrid="false"
   inkscape:zoom="2.56"
   inkscape:cx="195.19227"
   inkscape:cy="64.3877"
   inkscape:window-x="-8"
   inkscape:window-y="-8"
   inkscape:window-maximized="1"
   inkscape:current-layer="Layer_1" />


<circle
   style="opacity:1;fill:#003063;fill-opacity:1;fill-rule:evenodd;stroke-width:3.45317054;filter:url(#filter862)"
   id="path938-2"
   cx="100"
   cy="100"
   r="82.5"
   inkscape:export-xdpi="11"
   inkscape:export-ydpi="11" /><path
   style="fill:#000000;stroke-width:0.20480187"
   d=""
   id="path864"
   inkscape:connector-curvature="0" /><path
   style="fill:#ffffff;stroke-width:0.20628683;fill-opacity:1"
   d="m 50.157023,149.19279 c 0,-3.56945 0.1152,-4.11168 1.1293,-5.31431 0.9911,-1.17552 2.0017,-1.55623 4.3889,-1.65348 l 2.1144,-0.0861 v -2.96776 -2.96776 h 42.495097 42.4951 v 2.96776 2.96776 l 2.1144,0.0861 c 2.3872,0.0973 3.3977,0.47796 4.3889,1.65348 1.0141,1.20263 1.1293,1.74486 1.1293,5.31431 V 152.5 h -50.1277 -50.127697 z m 7.6326,-38.25959 V 89.582509 h 4.2289 4.2289 v 21.350691 21.35069 h -4.2289 -4.2289 z m 25.4239,0.0516 0.053,-21.299111 h 4.2289 4.2289 l 0.053,21.299111 0.053,21.29912 h -4.334 -4.3339 z m 25.579497,0 0.053,-21.299111 h 4.2289 4.2288 l 0.053,21.299111 0.053,21.29912 h -4.3339 -4.334 z m 25.529,-0.0516 V 89.582509 h 4.2289 4.2289 v 21.350691 21.35069 h -4.2289 -4.2289 z M 53.182523,85.731829 c -0.076,-0.0756 -0.1375,-2.02505 -0.1375,-4.33203 v -4.1945 h 47.136497 47.1366 v 4.33203 4.33202 h -46.999 c -25.849497,0 -47.060897,-0.0619 -47.136597,-0.13752 z m -3.2318,-13.66768 c 7.0593,-3.571779 50.095197,-24.56415 50.358297,-24.56415 0.2524,0 49.9603,24.28037 52.0631,25.43077 0.5751,0.31463 -3.1081,0.33839 -52.0874,0.33613 l -52.706297,-0.002 z"
   id="path837"
   inkscape:connector-curvature="0" /></svg>