<?xml version="1.0" encoding="UTF-8" standalone="no"?> <svg    xmlns:dc="http://purl.org/dc/elements/1.1/" xmlns:cc="http://creativecommons.org/ns#" xmlns:rdf="http://www.w3.org/1999/02/22-rdf-syntax-ns#" xmlns:svg="http://www.w3.org/2000/svg" xmlns="http://www.w3.org/2000/svg" version="1.1" id="Capa_1" x="0px" y="0px" viewBox="0 0 26 26" style="enable-background:new 0 0 26 26;" xml:space="preserve"> <g id="g8"> <path style="fill:#030104;" d="M18,17.759v3.366C18,22.159,17.159,23,16.125,23H4.875C3.841,23,3,22.159,3,21.125V9.875   C3,8.841,3.841,8,4.875,8h3.429l3.001-3h-6.43C2.182,5,0,7.182,0,9.875v11.25C0,23.818,2.182,26,4.875,26h11.25   C18.818,26,21,23.818,21,21.125v-6.367L18,17.759z" id="path2" /> <g id="g6"> 	<path style="fill:#030104;" d="M22.581,0H12.322c-1.886,0.002-1.755,0.51-0.76,1.504l3.22,3.22l-5.52,5.519 c-1.145,1.144-1.144,2.998,0,4.141l2.41,2.411c1.144,1.141,2.996,1.142,4.14-0.001l5.52-5.52l3.16,3.16 c1.101,1.1,1.507,1.129,1.507-0.757L26,3.419C25.999-0.018,26.024-0.001,22.581,0z" id="path4" /> </g> </g> <g id="g10"> </g> <g id="g12"> </g> <g id="g14"> </g> <g id="g16"> </g> <g id="g18"> </g> <g id="g20"> </g> <g id="g22"> </g> <g id="g24"> </g> <g id="g26"> </g> <g id="g28"> </g> <g id="g30"> </g> <g id="g32"> </g> <g id="g34"> </g> <g id="g36"> </g> <g id="g38"> </g> </svg>